<svg xmlns="http://www.w3.org/2000/svg" xmlns:xlink="http://www.w3.org/1999/xlink" width="400" zoomAndPan="magnify" viewBox="0 0 300 112.499997" height="150" preserveAspectRatio="xMidYMid meet" version="1.0"><defs><g/></defs><g fill="#000000" fill-opacity="1"><g transform="translate(7.041401, 86.615038)"><g><path d="M 5.652344 0 C 6.804688 0 7.640625 -0.941406 7.640625 -2.09375 C 7.328125 -7.429688 7.953125 -16.328125 9.210938 -26.375 C 18.523438 -29.515625 24.28125 -30.980469 31.503906 -32.132812 L 31.503906 -27.839844 C 31.503906 -21.039062 31.398438 -14.023438 31.085938 -7.011719 C 31.085938 -5.652344 31.710938 -4.917969 33.074219 -4.816406 C 34.222656 -4.816406 35.269531 -5.652344 35.269531 -6.804688 C 35.585938 -13.605469 35.691406 -20.933594 35.691406 -28.152344 L 35.691406 -32.757812 L 40.816406 -33.386719 C 41.96875 -33.492188 42.597656 -34.222656 42.597656 -35.375 L 42.597656 -35.691406 C 42.492188 -36.839844 41.65625 -37.574219 40.503906 -37.574219 L 40.296875 -37.574219 L 35.585938 -36.945312 C 35.269531 -55.679688 35.0625 -71.484375 26.585938 -74.519531 C 25.539062 -74.832031 24.699219 -75.042969 23.96875 -75.042969 C 12.140625 -75.042969 7.011719 -43.75 5.335938 -29.621094 C 3.558594 -28.886719 1.570312 -28.257812 -0.628906 -27.527344 C -1.570312 -27.210938 -2.09375 -26.480469 -2.09375 -25.539062 C -2.09375 -25.222656 -2.09375 -25.015625 -1.988281 -24.910156 C -1.675781 -23.96875 -0.941406 -23.445312 0 -23.445312 L 0.3125 -23.445312 C 0.734375 -23.445312 1.464844 -23.757812 4.816406 -25.015625 C 3.664062 -15.386719 3.347656 -7.011719 3.453125 -1.988281 C 3.453125 -0.835938 4.394531 0 5.546875 0 Z M 9.839844 -30.980469 C 11.09375 -39.773438 15.910156 -70.75 24.074219 -70.75 C 26.480469 -70.75 28.257812 -68.34375 29.410156 -64.261719 C 30.5625 -60.179688 31.085938 -49.503906 31.398438 -36.421875 C 23.863281 -35.269531 18.210938 -33.597656 9.839844 -30.980469 Z M 9.839844 -30.980469 "/></g></g></g><g fill="#000000" fill-opacity="1"><g transform="translate(51.727835, 86.615038)"><g><path d="M 9.523438 -13.921875 C 16.011719 -13.921875 23.128906 -25.117188 26.164062 -30.667969 C 26.269531 -30.875 26.375 -31.1875 26.375 -31.710938 C 26.375 -32.550781 26.0625 -33.179688 25.328125 -33.597656 C 24.910156 -33.703125 24.59375 -33.804688 24.386719 -33.804688 C 23.550781 -33.804688 22.921875 -33.386719 22.503906 -32.65625 C 18.628906 -25.746094 12.769531 -18.105469 9.628906 -18.105469 C 9.316406 -18.105469 9.105469 -18.210938 8.792969 -18.316406 C 7.429688 -19.152344 5.234375 -20.410156 5.234375 -30.039062 C 5.234375 -38.726562 7.011719 -52.4375 11.09375 -72.53125 C 11.304688 -73.890625 10.78125 -74.730469 9.417969 -75.042969 C 8.269531 -75.355469 7.328125 -74.519531 7.011719 -73.367188 C 4.5 -60.703125 1.046875 -43.539062 1.046875 -30.980469 C 1.046875 -21.039062 3.140625 -13.921875 9.523438 -13.921875 Z M 9.523438 -13.921875 "/></g></g></g><g fill="#000000" fill-opacity="1"><g transform="translate(73.076854, 86.615038)"><g><path d="M 10.988281 -13.921875 C 17.792969 -13.921875 26.164062 -17.792969 34.015625 -30.667969 C 34.222656 -30.980469 34.328125 -31.292969 34.328125 -31.710938 C 34.328125 -32.65625 34.015625 -33.179688 33.28125 -33.492188 C 32.96875 -33.703125 32.550781 -33.804688 32.234375 -33.804688 C 31.503906 -33.804688 30.875 -33.492188 30.457031 -32.863281 C 26.792969 -26.6875 22.816406 -22.605469 18.628906 -20.199219 C 16.222656 -18.945312 13.398438 -18.105469 10.570312 -18.105469 C 6.699219 -18.105469 3.347656 -19.78125 3.347656 -24.28125 C 3.347656 -24.804688 3.453125 -25.328125 3.558594 -26.0625 C 10.570312 -26.585938 18.839844 -31.710938 18.839844 -37.261719 C 18.839844 -40.296875 16.535156 -42.703125 13.1875 -42.703125 C 11.09375 -42.703125 8.582031 -41.761719 5.964844 -39.25 C 1.882812 -35.375 -0.734375 -29.410156 -0.734375 -24.28125 C -0.734375 -18.734375 2.511719 -13.921875 10.988281 -13.921875 Z M 5.023438 -30.5625 C 7.851562 -36.421875 11.304688 -38.515625 13.292969 -38.515625 C 14.023438 -38.515625 14.445312 -38.304688 14.546875 -37.78125 C 15.070312 -35.375 10.152344 -31.398438 5.023438 -30.5625 Z M 5.023438 -30.5625 "/></g></g></g><g fill="#000000" fill-opacity="1"><g transform="translate(102.170128, 86.615038)"><g><path d="M -2.511719 -15.488281 C -1.988281 -15.175781 -1.570312 -15.070312 -1.257812 -15.070312 C -0.523438 -15.070312 0 -15.386719 0.417969 -15.910156 C 2.199219 -18.316406 4.082031 -20.09375 6.070312 -22.082031 C 9.105469 -16.535156 12.976562 -13.816406 17.164062 -13.816406 C 20.722656 -13.816406 24.386719 -15.59375 28.050781 -19.257812 C 32.550781 -23.445312 35.792969 -29.097656 37.15625 -30.667969 C 37.46875 -30.980469 37.574219 -31.398438 37.574219 -31.921875 C 37.574219 -32.65625 37.261719 -33.179688 36.738281 -33.597656 C 36.421875 -33.910156 36.003906 -34.015625 35.480469 -34.015625 C 34.746094 -34.015625 34.222656 -33.804688 33.804688 -33.28125 C 29.515625 -27.628906 23.445312 -18 17.375 -18 C 14.546875 -18 11.722656 -19.992188 9.105469 -25.328125 C 12.351562 -28.992188 16.011719 -33.597656 20.515625 -42.386719 C 20.722656 -42.703125 20.828125 -43.015625 20.828125 -43.433594 C 20.828125 -44.585938 19.992188 -45.421875 18.734375 -45.421875 C 17.898438 -45.421875 17.269531 -45.003906 16.851562 -44.273438 C 13.1875 -37.15625 10.046875 -32.757812 7.222656 -29.515625 C 6.070312 -32.757812 4.917969 -36.632812 3.976562 -41.132812 C 3.664062 -42.074219 2.824219 -42.703125 1.882812 -42.703125 L 1.464844 -42.703125 C 0.417969 -42.386719 -0.105469 -41.65625 -0.105469 -40.609375 L -0.105469 -40.191406 C 1.152344 -34.644531 2.511719 -29.933594 4.082031 -26.164062 C 1.675781 -23.652344 -0.523438 -21.664062 -2.929688 -18.421875 C -3.246094 -18 -3.347656 -17.582031 -3.347656 -17.164062 C -3.347656 -16.433594 -3.035156 -15.910156 -2.511719 -15.488281 Z M -2.511719 -15.488281 "/></g></g></g><g fill="#000000" fill-opacity="1"><g transform="translate(134.821578, 86.615038)"><g><path d="M -0.3125 -14.863281 C 0.628906 -14.234375 1.675781 -13.921875 2.824219 -13.921875 C 6.699219 -13.921875 11.199219 -18.421875 13.605469 -22.292969 C 13.292969 -17.375 15.59375 -13.921875 19.257812 -13.921875 C 23.445312 -13.921875 29.515625 -18.421875 36.214844 -30.667969 C 36.316406 -31.085938 36.421875 -31.398438 36.421875 -31.609375 C 36.421875 -32.445312 36.003906 -33.074219 35.269531 -33.492188 C 35.0625 -33.597656 34.746094 -33.703125 34.328125 -33.703125 C 33.492188 -33.703125 32.863281 -33.386719 32.445312 -32.65625 C 29.097656 -25.957031 22.921875 -18.210938 19.886719 -18.210938 C 18.734375 -18.210938 18.105469 -19.152344 18.105469 -21.980469 C 18.105469 -23.339844 18.210938 -25.015625 18.628906 -27.109375 C 18.945312 -29.304688 19.363281 -31.503906 20.09375 -33.492188 C 20.617188 -35.0625 19.675781 -36.421875 18.105469 -36.421875 C 17.375 -36.421875 16.746094 -36.003906 16.222656 -35.167969 C 13.710938 -30.351562 9.628906 -22.398438 5.335938 -19.257812 C 4.394531 -18.523438 3.664062 -18.210938 2.929688 -18.210938 C 1.777344 -18.210938 1.257812 -19.046875 1.257812 -20.828125 C 1.257812 -26.269531 7.429688 -38.410156 18.628906 -38.410156 C 19.78125 -38.410156 20.722656 -39.351562 20.722656 -40.503906 C 20.722656 -41.65625 19.78125 -42.597656 18.628906 -42.597656 C 5.546875 -42.597656 -2.824219 -29.304688 -2.824219 -20.828125 C -2.824219 -18.210938 -1.988281 -16.011719 -0.3125 -14.863281 Z M -0.3125 -14.863281 "/></g></g></g><g fill="#000000" fill-opacity="1"><g transform="translate(166.112547, 86.615038)"><g><path d="M 2.09375 -14.023438 C 3.035156 -14.023438 3.664062 -14.445312 3.976562 -15.386719 C 7.851562 -26.269531 12.453125 -37.679688 14.863281 -37.679688 C 15.28125 -37.679688 15.59375 -37.363281 15.910156 -36.632812 C 16.222656 -35.691406 16.433594 -34.433594 16.433594 -32.863281 C 16.433594 -28.992188 15.699219 -24.074219 20.199219 -21.246094 C 21.351562 -20.515625 22.605469 -20.09375 24.175781 -20.09375 C 29.722656 -20.09375 35.0625 -25.539062 38.203125 -30.667969 C 38.410156 -30.980469 38.515625 -31.292969 38.515625 -31.710938 C 38.515625 -32.550781 38.203125 -33.179688 37.46875 -33.492188 C 37.15625 -33.703125 36.738281 -33.804688 36.316406 -33.804688 C 35.585938 -33.804688 34.957031 -33.492188 34.644531 -32.757812 C 32.65625 -29.304688 28.050781 -24.28125 24.386719 -24.28125 C 23.652344 -24.28125 23.027344 -24.492188 22.503906 -24.804688 C 20.09375 -26.375 20.617188 -29.515625 20.617188 -32.96875 C 20.617188 -34.746094 20.515625 -36.632812 19.78125 -38.304688 C 18.839844 -40.714844 16.851562 -41.96875 14.652344 -41.96875 C 10.257812 -41.96875 7.851562 -36.421875 5.128906 -29.828125 C 5.546875 -33.910156 5.859375 -37.363281 6.28125 -40.296875 C 6.59375 -41.445312 5.652344 -42.597656 4.5 -42.703125 C 3.347656 -43.015625 2.300781 -42.074219 2.199219 -40.921875 C 1.046875 -32.863281 0.3125 -22.921875 0 -16.222656 C -0.105469 -15.070312 0.835938 -14.023438 2.09375 -14.023438 Z M 2.09375 -14.023438 "/></g></g></g><g fill="#000000" fill-opacity="1"><g transform="translate(199.496562, 86.615038)"><g><path d="M 30.980469 0 C 32.132812 -0.105469 32.863281 -0.941406 32.863281 -2.09375 L 32.863281 -2.300781 C 31.503906 -14.546875 30.980469 -29.933594 30.980469 -43.332031 L 30.980469 -49.609375 C 32.339844 -55.15625 34.539062 -64.890625 34.539062 -69.914062 C 34.539062 -72.007812 34.222656 -73.367188 33.597656 -74.101562 C 33.074219 -74.832031 32.234375 -75.253906 31.292969 -75.253906 C 30.5625 -75.253906 29.933594 -74.9375 29.515625 -74.414062 C 27.109375 -71.695312 26.792969 -54.425781 26.792969 -50.132812 C 24.175781 -39.144531 20.410156 -28.675781 11.617188 -20.828125 C 9.523438 -18.945312 7.746094 -18 6.175781 -18 C 3.976562 -18 2.824219 -20.09375 2.824219 -23.027344 C 2.824219 -29.410156 8.058594 -38.933594 19.363281 -38.621094 C 20.515625 -38.515625 21.457031 -39.457031 21.457031 -40.609375 C 21.558594 -41.761719 20.617188 -42.703125 19.46875 -42.808594 C 5.859375 -43.121094 -1.359375 -31.816406 -1.359375 -23.027344 C -1.359375 -18 1.152344 -13.921875 6.28125 -13.921875 C 14.652344 -13.921875 23.550781 -27.945312 26.792969 -35.898438 C 27.109375 -23.339844 27.527344 -11.40625 28.675781 -1.882812 C 28.78125 -0.628906 29.515625 0 30.769531 0 Z M 30.980469 0 "/></g></g></g><g fill="#000000" fill-opacity="1"><g transform="translate(237.485253, 86.615038)"><g><path d="M 2.09375 -14.757812 C 3.246094 -14.757812 4.1875 -15.59375 4.1875 -16.746094 C 4.710938 -27.945312 15.59375 -40.296875 21.039062 -39.25 C 22.1875 -38.933594 23.128906 -39.667969 23.445312 -40.816406 C 23.757812 -41.96875 23.027344 -43.015625 21.875 -43.332031 C 21.140625 -43.433594 20.617188 -43.539062 20.199219 -43.539062 C 14.339844 -43.539062 8.164062 -36.738281 5.128906 -31.710938 C 5.441406 -34.746094 5.546875 -37.886719 5.546875 -41.132812 C 5.546875 -42.285156 4.605469 -43.226562 3.453125 -43.226562 C 2.300781 -43.226562 1.359375 -42.285156 1.359375 -41.132812 C 1.257812 -33.179688 0.105469 -25.117188 0 -16.851562 C 0 -15.699219 0.941406 -14.863281 2.09375 -14.757812 Z M 2.09375 -14.757812 "/></g></g></g><g fill="#000000" fill-opacity="1"><g transform="translate(261.659882, 86.615038)"><g><path d="M -0.3125 -14.863281 C 0.628906 -14.234375 1.675781 -13.921875 2.824219 -13.921875 C 6.699219 -13.921875 11.199219 -18.421875 13.605469 -22.292969 C 13.292969 -17.375 15.59375 -13.921875 19.257812 -13.921875 C 23.445312 -13.921875 29.515625 -18.421875 36.214844 -30.667969 C 36.316406 -31.085938 36.421875 -31.398438 36.421875 -31.609375 C 36.421875 -32.445312 36.003906 -33.074219 35.269531 -33.492188 C 35.0625 -33.597656 34.746094 -33.703125 34.328125 -33.703125 C 33.492188 -33.703125 32.863281 -33.386719 32.445312 -32.65625 C 29.097656 -25.957031 22.921875 -18.210938 19.886719 -18.210938 C 18.734375 -18.210938 18.105469 -19.152344 18.105469 -21.980469 C 18.105469 -23.339844 18.210938 -25.015625 18.628906 -27.109375 C 18.945312 -29.304688 19.363281 -31.503906 20.09375 -33.492188 C 20.617188 -35.0625 19.675781 -36.421875 18.105469 -36.421875 C 17.375 -36.421875 16.746094 -36.003906 16.222656 -35.167969 C 13.710938 -30.351562 9.628906 -22.398438 5.335938 -19.257812 C 4.394531 -18.523438 3.664062 -18.210938 2.929688 -18.210938 C 1.777344 -18.210938 1.257812 -19.046875 1.257812 -20.828125 C 1.257812 -26.269531 7.429688 -38.410156 18.628906 -38.410156 C 19.78125 -38.410156 20.722656 -39.351562 20.722656 -40.503906 C 20.722656 -41.65625 19.78125 -42.597656 18.628906 -42.597656 C 5.546875 -42.597656 -2.824219 -29.304688 -2.824219 -20.828125 C -2.824219 -18.210938 -1.988281 -16.011719 -0.3125 -14.863281 Z M -0.3125 -14.863281 "/></g></g></g></svg>